<svg id="Layer_1" data-name="Layer 1" xmlns="http://www.w3.org/2000/svg" viewBox="0 0 36 36"><defs><style>.cls-1{fill:#202a44;}</style></defs><g id="cheese"><path class="cls-1" d="M16.854,21.319a.535.535,0,0,0-.008-.089c0-.016-.014-.028-.019-.043a.611.611,0,0,0-.032-.074.662.662,0,0,0-.121-.158.516.516,0,0,0-.111-.075.483.483,0,0,0-.059-.032.548.548,0,0,0-.2-.041H.562c-.011,0-.021.006-.033.007a.574.574,0,0,0-.184.037.579.579,0,0,0-.182.123h0c-.006.006-.008.015-.014.021a.562.562,0,0,0-.106.161.607.607,0,0,0-.021.1A.59.59,0,0,0,0,21.37v7.884c.029,2.59,1.68,4.895,4.774,6.666l0,0h0l0,0a.562.562,0,0,0,.082.033c.018.007.034.017.052.022A.6.6,0,0,0,5.062,36h0a.564.564,0,0,0,.142-.018c.016-.005.03-.013.045-.018a.558.558,0,0,0,.085-.034l11.239-6.189a.562.562,0,0,0,.291-.493V21.37A.459.459,0,0,0,16.854,21.319Zm-2.741.614-9.042,4.98C2.71,25.5,1.4,23.826,1.163,21.933ZM1.125,29.248v-4.4A10.537,10.537,0,0,0,4.5,27.878v6.549C2.284,32.948,1.147,31.208,1.125,29.248Zm4.5,5.237V27.892l10.114-5.57v6.593Z"/><path class="cls-1" d="M36,9.538c-.033-2.6-1.778-5.017-4.929-6.819C24.753-.89,14.511-.909,8.236,2.678,5.076,4.484,3.35,6.925,3.376,9.551v7.887a6.126,6.126,0,0,0,.314,1.869.563.563,0,0,0,.534.384.554.554,0,0,0,.178-.03.562.562,0,0,0,.355-.712A4.958,4.958,0,0,1,4.5,17.431v-4.4a10.512,10.512,0,0,0,3.375,3.03v3.067a.563.563,0,1,0,1.125,0V16.076L19.125,10.5v6.607l-2.54,1.53a.563.563,0,1,0,.58.964l1.96-1.181v8.014a.5.5,0,0,0,.022.11.544.544,0,0,0,.022.108.5.5,0,0,0,.061.091.541.541,0,0,0,.059.088.507.507,0,0,0,.081.056.538.538,0,0,0,.1.065.62.62,0,0,0,.1.021.588.588,0,0,0,.118.024h.106a23.233,23.233,0,0,0,11.347-2.691C34,22.669,36.03,21.3,36,18.556v-9ZM4.5,9.547c-.024-2.2,1.5-4.3,4.294-5.892C14.762.245,24.5.262,30.51,3.7c2.815,1.609,4.365,3.71,4.365,5.915h0c0,2.183-1.525,4.258-4.3,5.841a21.872,21.872,0,0,1-10.33,2.529V9.553a.557.557,0,0,0-.218-.434c-.009-.007-.019-.012-.028-.018a.519.519,0,0,0-.148-.076.481.481,0,0,0-.084-.017.492.492,0,0,0-.085-.017c-.011,0-.021.006-.032.006a.553.553,0,0,0-.132.027,5.621,5.621,0,0,1-.118.036L8.446,15.1C5.851,13.542,4.524,11.676,4.5,9.547Zm30.374,9.015c.023,1.979-1.247,3.026-4.294,4.767a21.873,21.873,0,0,1-10.33,2.53V19.106a23.017,23.017,0,0,0,10.888-2.677,10.947,10.947,0,0,0,3.737-3.3Z"/><circle class="cls-1" cx="12.375" cy="28.685" r="0.563"/><circle class="cls-1" cx="14.062" cy="26.997" r="0.563"/><circle class="cls-1" cx="11.25" cy="26.434" r="0.563"/></g></svg>