<svg id="logo" xmlns="http://www.w3.org/2000/svg" viewBox="0 0 522.7 142.25"><defs><style>.cls-1{fill:#af6d04}</style></defs><path class="cls-1" d="M420.86 18.11a.44.44 0 0 0-.36.7c2.15 2.79 3.59 6.7 3.59 12v42.91c0 6.74-2 10.32-3.18 11.85a.58.58 0 0 0 .45.93h19.3a.65.65 0 0 0 .54-1 23.62 23.62 0 0 1-3.74-13.4l.2-42.09h4.81c13.78 0 11.82 21.67-.74 23.49v.19c15 1.79 12.82 24.11 10.11 32a.64.64 0 0 0 .61.84h19.27a.2.2 0 0 0 .11-.36c-6.32-4.6-.57-29.65-16.36-32.63 10.9-4.12 12.93-24.22 2.68-31.71a25.23 25.23 0 0 0-13.92-3.73zM162.12 18H144.8a.46.46 0 0 0-.42.65c.66 1.44 2.28 5.16 1.68 12.24l-5.81 43.01-9.84-43.06c-1.24-7 1.2-10.67 2.25-12.16a.47.47 0 0 0-.38-.73H113.2a.49.49 0 0 0-.34.83c1.48 1.39 2.56 3.41 4.2 10.21l12.08 49.51a7.47 7.47 0 0 1-1.57 7.27.38.38 0 0 0 .29.63h25.88a.38.38 0 0 0 .27-.64 8 8 0 0 1-2.23-7.26l7.46-49.5c1-6.78 1.89-8.81 3.23-10.2a.49.49 0 0 0-.35-.8zM408.31 72.37a.56.56 0 0 0-.87-.38c-9.34 6.64-29.24 3.72-29.35-18.93C378 38.6 388 31.87 395.56 31.87c5.08 0 10.1 2 12.28 5.18a.4.4 0 0 0 .74-.22c0-6 1.26-15.4 5.4-18.2a.32.32 0 0 0-.18-.58L399 18c-11.44 0-34.69 5.86-34.69 35.07 0 31.81 27.55 42.1 49.09 32a.73.73 0 0 0 .15-1.21c-2.55-2.14-4.71-7.41-5.24-11.49zM30.22 27.11c-7.83-6.49-2.5-15.49 6.13-15.49 8.28 0 12 9.12 5.32 13.51a.21.21 0 0 0 .08.39C54.17 27.31 58.2 9.93 59.56 3.05a.26.26 0 0 0-.34-.3C51.16 4.94 43.19 0 34.94 0c-11.64 0-23 7.4-23 20.81 0 19.48 43.21 30.67 43.21 53.86a20.59 20.59 0 0 1-20.83 20.4c-23.24 0-23.57-30.38-10.67-30.38 5.86 0 8.3 5.43 7 10.09a.36.36 0 0 0 .35.46c11.1-.69 13.3-24.43-7.79-24.43C10.38 50.81 0 62.72 0 76.91c0 15.6 15.33 30 35.32 30 19.24 0 33.6-14.26 33.6-30.77s-14.62-29-19.71-33.24zM198.86 48.51zM219.5 65.31c0 11-.25 16.75-3 20.11a.61.61 0 0 0 .45 1h19.25a.31.31 0 0 0 .23-.53c-1-1.07-3.38-4-3.38-12.66l-.3-36.34c7.82 8.87 16.43 35 16.43 40.59a13.64 13.64 0 0 1-2.28 8 .59.59 0 0 0 .48.92h18.92a.53.53 0 0 0 .38-.9c-2-2-3.21-4.11-3.21-10.7 0-15-.12-30 0-45 0-3.31 1.25-8.49 3.29-11.23a.38.38 0 0 0-.3-.6h-20.12a.48.48 0 0 0-.26.86c2.94 2.26 3.91 5.55 3.93 9 0 3.66 0 11.71.05 19.66C245.5 34 236.13 19.94 224.4 18.18c-.66-.09-5.63-.15-7.89-.17a.41.41 0 0 0-.31.7c2.52 2.69 3.3 6.9 3.3 14.07zM183.85 29.07c4.25-.45 11.07-.92 16.83 2.22a.44.44 0 0 0 .66-.37 15.52 15.52 0 0 1 6.59-12.26.34.34 0 0 0-.21-.62h-40.41a.42.42 0 0 0-.32.7c2.24 2.56 3.37 5.77 3.37 12.07v42.91c0 6.93-2.32 10.31-3.46 11.81a.54.54 0 0 0 .43.87h43.22a.51.51 0 0 0 .38-.84c-2.09-2.32-5.08-6.71-6.62-14a.56.56 0 0 0-.88-.34c-5.1 3.9-17.64 4.82-19.58 4V59.61h11a1 1 0 0 0 1-.88 18.75 18.75 0 0 1 1-3.62 16.77 16.77 0 0 1 2.92-5.06.46.46 0 0 0-.35-.76h-15.57zM102.55 59.61a.23.23 0 0 0 .23-.2 18.25 18.25 0 0 1 1.07-4.3 16.38 16.38 0 0 1 3.25-5.41.24.24 0 0 0-.17-.41H90.87V29.07a33.49 33.49 0 0 1 20 3.76.32.32 0 0 0 .44-.42c-2.52-5.2-3.49-10.41-3.23-14a.33.33 0 0 0-.34-.35H74.25a.39.39 0 0 0-.3.64c2.28 2.57 3.43 5.78 3.43 12.13v42.89c0 7.23-1.91 10.41-3.52 12.13a.33.33 0 0 0 .24.55H118a.3.3 0 0 0 .23-.51c-2.11-2.24-5.36-6.75-7-14.57a.43.43 0 0 0-.68-.26c-5 4-17.77 5-19.73 4.12V59.61z" transform="translate(0 .03)"/><path class="cls-1" d="M371.67 108.2c-7.05-5.5-13.19-12-14.63-26.5l-6-57.15c-2.48-17 4.07-22.4 7.19-24a.31.31 0 0 0-.14-.59c-5.79 0-25 .07-35.25.07S299.76 6.75 299.76 20c0 6.44 3.28 14.6 12.77 16.26l-3.8 14.16a37.53 37.53 0 0 0-8.24-1C293 49.39 286 53.23 284 61.57a.3.3 0 0 0 .4.34c7.11-2.65 14.23-1.36 21.09.69L301.61 77c-4.86 19.22-26.8 59.57-47.09 59.57-20.7 0-16.3-31 6.09-28.08a.3.3 0 0 0 .23-.53c-17-13.06-34-3.32-34 10.64 0 15.11 14.87 23.67 26.88 23.67 26 0 40.34-32.66 63.21-33.39a.21.21 0 0 0 .11-.4c-5.87-3.89-7.66-14.71-5.2-24.33.83-3.25 2.74-10 5-17.88a40.13 40.13 0 0 0 7.6 1.56c5.71.5 13.79-1.22 18.16-7.94 1 13 2 26.16 2.35 30.44 1 11.36-2.53 16-6.7 18.08a.24.24 0 0 0 .11.46h33.13a.35.35 0 0 0 .18-.67zm-37.13-51.82c-4.6 0-9.34-1.24-14.13-2.67 3.11-10.76 6.12-21.12 7.36-25.53 2-6.24 1.67-10.5.56-12.21a.41.41 0 0 0-.7.07c-4.54 9.29-17.06 7.55-17-.43.05-5.47 9.25-10.62 18.47-6 6.41 3.19 9.06 9.92 10.74 20.12.4 2.42 1 9.17 1.7 17.36.46 6.17-2.09 9.29-7 9.29zM381.15 95.68a6.57 6.57 0 1 1 0 13.14h-4.29V95.68zm-1.43 2.38v8.39h1.21a4.2 4.2 0 0 0 0-8.39zM400.84 108.82h-3l-1.15-2.37h-5.41l-1.15 2.37h-3L394 95.14zm-8.52-4.57h3.28l-1.6-3.39zM404.51 95.68v13.14h-2.86V95.68zM409.53 108.82h-2.86V95.68h4c3 0 5.09 1.57 5.09 4.19a3.75 3.75 0 0 1-2.34 3.57l3.82 5.38h-3.33L410.5 104h-1zm0-7.13h1.12c1.33 0 2.19-.68 2.19-1.82S412 98 410.65 98h-1.12zM420.57 108.82V103l-4.92-7.36h3.24l3.1 4.7 3.13-4.7h3.24l-4.91 7.36v5.78zM441.88 105v3.3a6.81 6.81 0 1 1-3.24-12.79 6.65 6.65 0 0 1 3.24.8v3.29a4.21 4.21 0 0 0-3.19-1.35 4.05 4.05 0 0 0 0 8.1 4.21 4.21 0 0 0 3.19-1.35z" transform="translate(0 .03)"/><path class="cls-1" d="M456.37 102.25a6.76 6.76 0 1 1-6.77-6.79 6.77 6.77 0 0 1 6.77 6.79zm-10.64 0a3.89 3.89 0 1 0 3.87-4.12 3.92 3.92 0 0 0-3.87 4.12zM470 95.14l4.06 13.68h-2.94l-2-7-3.94 7.34-4-7.34-2 7h-2.93l4-13.68 4.88 8.93zM478 104v4.79h-2.86V95.68h4c3 0 5.1 1.57 5.1 4.19s-2.09 4.16-5.1 4.16zm0-2.34h1.12c1.33 0 2.19-.68 2.19-1.82s-.82-1.84-2.15-1.84H478zM496.51 108.82h-3l-1.16-2.37h-5.4l-1.15 2.37h-3l6.89-13.68zm-8.51-4.57h3.28l-1.64-3.39zM506.37 95.68h2.81v13.66l-9.07-8.22v7.7h-2.81V95.16l9.07 8.24zM514.9 108.82V103l-4.9-7.32h3.24l3.1 4.7 3.13-4.7h3.24l-4.93 7.32v5.78zM494.79 29.07c4.25-.45 11.07-.92 16.83 2.22a.44.44 0 0 0 .66-.37 15.52 15.52 0 0 1 6.59-12.26.34.34 0 0 0-.21-.62h-40.41a.42.42 0 0 0-.32.7c2.24 2.56 3.37 5.77 3.37 12.07v42.91c0 6.93-2.32 10.31-3.46 11.81a.54.54 0 0 0 .44.87h43.21a.51.51 0 0 0 .38-.84c-2.09-2.32-5.08-6.71-6.62-14a.56.56 0 0 0-.88-.34c-5.09 3.9-17.64 4.82-19.58 4V59.61h10.95a1.06 1.06 0 0 0 1.06-.88 18.69 18.69 0 0 1 1-3.62 17 17 0 0 1 2.92-5.06.46.46 0 0 0-.35-.76h-15.58z" transform="translate(0 .03)"/></svg>