<svg data-name="Layer 1" xmlns="http://www.w3.org/2000/svg" viewBox="0 0 60 60"><path d="M30 0a30 30 0 1 0 30 30A30 30 0 0 0 30 0zm15.11 24v1c0 10-7.61 21.51-21.52 21.51A21.47 21.47 0 0 1 12 43.05a15.56 15.56 0 0 0 1.81.1 15.17 15.17 0 0 0 9.39-3.24 7.55 7.55 0 0 1-7.06-5.25 7.39 7.39 0 0 0 3.41-.13 7.56 7.56 0 0 1-6.07-7.41V27a7.52 7.52 0 0 0 3.43.95 7.57 7.57 0 0 1-2.31-10.07 21.45 21.45 0 0 0 15.58 7.89 7.57 7.57 0 0 1 12.89-6.89 15.09 15.09 0 0 0 4.8-1.88 7.64 7.64 0 0 1-3.33 4.19A15.48 15.48 0 0 0 48.89 20a15.44 15.44 0 0 1-3.78 4z"/></svg>