<svg data-name="Layer 1" xmlns="http://www.w3.org/2000/svg" viewBox="0 0 60 60"><circle cx="29.76" cy="30.24" r="5.37"/><path d="M36.46 17.07H23.05a6.67 6.67 0 0 0-4.76 1.71 6.67 6.67 0 0 0-1.7 4.76V37a6.72 6.72 0 0 0 1.82 4.88 6.88 6.88 0 0 0 4.76 1.71h13.29a6.67 6.67 0 0 0 4.76-1.71 6.26 6.26 0 0 0 1.83-4.76V23.66a6.88 6.88 0 0 0-1.71-4.76 6.52 6.52 0 0 0-4.88-1.83zm-6.7 21.47a8.3 8.3 0 1 1 0-16.59 8.3 8.3 0 1 1 0 16.59zm8.65-15a2 2 0 1 1 2-1.95 1.93 1.93 0 0 1-2 1.95z"/><path d="M30 0a30 30 0 1 0 30 30A30 30 0 0 0 30 0zm16 37.07a9.63 9.63 0 0 1-2.68 7 9.47 9.47 0 0 1-6.83 2.56H23.17A9.49 9.49 0 0 1 16.34 44a9.16 9.16 0 0 1-2.68-7V23.66c0-5.61 3.78-9.51 9.51-9.51h13.41a9.34 9.34 0 0 1 6.83 2.68A9.28 9.28 0 0 1 46 23.66z"/></svg>