<svg xmlns="http://www.w3.org/2000/svg" viewBox="0 0 140 140"><defs><style>.cls-1{fill:#f1f1de;}</style></defs><g id="Layer_1" data-name="Layer 1"><path class="cls-1" d="M70,140C28.78,140,0,111.21,0,70S28.78,0,70,0s70,28.78,70,70S111.22,140,70,140ZM70,2.61c-20.28,0-37.45,6.82-49.65,19.71C8.91,34.42,2.61,51.35,2.61,70s6.3,35.58,17.74,47.68c12.2,12.89,29.37,19.71,49.65,19.71s37.45-6.82,49.65-19.71c11.44-12.1,17.74-29,17.74-47.68s-6.3-35.58-17.74-47.68C107.45,9.43,90.28,2.61,70,2.61Z" transform="translate(0 0)"/><path class="cls-1" d="M52.28,48.4V53H50.57V41.66h1.94a8.79,8.79,0,0,1,2.15.2,2.82,2.82,0,0,1,1.29.75,3.24,3.24,0,0,1,1,2.41,3.13,3.13,0,0,1-1,2.47,4.19,4.19,0,0,1-2.82.91Zm0-1.59h.64c1.57,0,2.36-.6,2.36-1.81s-.81-1.76-2.43-1.76h-.57Z" transform="translate(0 0)"/><path class="cls-1" d="M64.52,50.25H59.67L58.41,53H56.56l5.61-12,5.42,12H65.71Zm-.7-1.61-1.68-3.86-1.76,3.86Z" transform="translate(0 0)"/><path class="cls-1" d="M67.92,47.28a5.54,5.54,0,0,1,1.76-4.11,5.74,5.74,0,0,1,4.2-1.72,5.94,5.94,0,0,1,5.9,5.9A5.61,5.61,0,0,1,78,51.5a6,6,0,0,1-8.18.19A5.55,5.55,0,0,1,67.92,47.28Zm1.73,0a4.19,4.19,0,0,0,7.17,3.07,4.4,4.4,0,0,0,0-6.08,4.24,4.24,0,0,0-6,0A4.08,4.08,0,0,0,69.65,47.3Z" transform="translate(0 0)"/><path class="cls-1" d="M83.64,41.66v9.73H87V53h-5V41.66Z" transform="translate(0 0)"/><path class="cls-1" d="M90.3,41.66V53H88.59V41.66Z" transform="translate(0 0)"/><path class="cls-1" d="M56.37,87.31l3,7.58,3.08-8.13,3,8.13,3.13-7.58h1.86L65.28,99.37l-2.91-8-3,8L54.51,87.31Z" transform="translate(0 0)"/><path class="cls-1" d="M73.47,87.31V98.65H71.76V87.31Z" transform="translate(0 0)"/><path class="cls-1" d="M82.6,89l-1.38.82a2.37,2.37,0,0,0-.75-.88,1.68,1.68,0,0,0-.94-.23,1.77,1.77,0,0,0-1.19.4,1.25,1.25,0,0,0-.46,1c0,.55.4,1,1.23,1.33l1.13.47a4.8,4.8,0,0,1,2,1.36,3.1,3.1,0,0,1,.64,2,3.47,3.47,0,0,1-1.05,2.59,3.56,3.56,0,0,1-2.6,1A3.49,3.49,0,0,1,76.81,98a4,4,0,0,1-1.18-2.46l1.73-.38a3,3,0,0,0,.41,1.38,1.78,1.78,0,0,0,1.54.73,1.8,1.8,0,0,0,1.33-.53,1.83,1.83,0,0,0,.53-1.36,2,2,0,0,0-.09-.61,1.49,1.49,0,0,0-.29-.5,2.19,2.19,0,0,0-.5-.44,5.47,5.47,0,0,0-.73-.38L78.46,93c-1.55-.65-2.33-1.61-2.33-2.88a2.72,2.72,0,0,1,1-2.13,3.52,3.52,0,0,1,2.43-.87A3.39,3.39,0,0,1,82.6,89Z" transform="translate(0 0)"/><path class="cls-1" d="M84.9,97.83a1,1,0,1,1,1.74.73,1,1,0,0,1-.72.29.94.94,0,0,1-.72-.29A1,1,0,0,1,84.9,97.83Z" transform="translate(0 0)"/><path class="cls-1" d="M14.24,74.66l-1.17.84-1-1.35a3.65,3.65,0,0,1-1.79.47,2.9,2.9,0,0,1-2.84-1.7,14.83,14.83,0,0,1-.82-5.85A11.44,11.44,0,0,1,7.47,62a2.84,2.84,0,0,1,2.72-1.5A2.9,2.9,0,0,1,13,62.14a14.07,14.07,0,0,1,.82,5.73A11.94,11.94,0,0,1,13.07,73ZM11,70.08l.77,1.09a20.79,20.79,0,0,0,.19-3,21.61,21.61,0,0,0-.34-4.8c-.23-.8-.68-1.21-1.35-1.21a1.29,1.29,0,0,0-1.28,1,15.16,15.16,0,0,0-.33,4A20.55,20.55,0,0,0,9,71.74q.35,1.17,1.32,1.17a1.3,1.3,0,0,0,.75-.25L9.85,71Z" transform="translate(0 0)"/><path class="cls-1" d="M15.69,60.67h1.82v9.74a5,5,0,0,0,.26,2,1.14,1.14,0,0,0,1.09.49,1.16,1.16,0,0,0,1.08-.43,4,4,0,0,0,.26-1.78v-10H22v10a4.86,4.86,0,0,1-.68,3,3.25,3.25,0,0,1-2.51.9,2.9,2.9,0,0,1-2.62-1.16,6.09,6.09,0,0,1-.52-3Z" transform="translate(0 0)"/><path class="cls-1" d="M26.1,60.67h1.44l3,13.78H28.66l-.52-2.69H25.41l-.53,2.69H23.1Zm1.77,9.66-.41-2.2c-.27-1.49-.49-3.09-.67-4.79-.08.83-.19,1.67-.32,2.52s-.28,1.75-.46,2.7l-.34,1.77Z" transform="translate(0 0)"/><path class="cls-1" d="M31.59,60.67h1.86V72.88h3v1.57H31.59Z" transform="translate(0 0)"/><path class="cls-1" d="M37.64,60.67H39.5V74.45H37.64Z" transform="translate(0 0)"/><path class="cls-1" d="M40.52,60.67h6v1.62H44.49V74.45H42.67V62.29H40.52Z" transform="translate(0 0)"/><path class="cls-1" d="M47.32,60.67h2l.91,3c0,.08.06.18.09.29s.07.22.11.35a22,22,0,0,1,.7,2.73c.11-.74.19-1.25.27-1.54l.28-1.24.11-.48.77-3.11h1.93l-2.4,7.85v5.93H50.19V68.52Z" transform="translate(0 0)"/><path class="cls-1" d="M62.57,67.2h3.37v.54q0,4-.7,5.43a2.61,2.61,0,0,1-2.61,1.45A2.93,2.93,0,0,1,59.82,73a12.7,12.7,0,0,1-.83-5.4c0-2.89.3-4.82.91-5.77a2.9,2.9,0,0,1,2.63-1.35,3.13,3.13,0,0,1,2.12.65,4.4,4.4,0,0,1,1.2,2.17L64.11,64a5.78,5.78,0,0,0-.25-.91,2.06,2.06,0,0,0-.32-.58,1.21,1.21,0,0,0-1-.42c-.63,0-1.05.38-1.27,1.14a18,18,0,0,0-.34,4.3,16.36,16.36,0,0,0,.35,4.24,1.34,1.34,0,0,0,1.31,1.11,1.27,1.27,0,0,0,1.24-.79,7.33,7.33,0,0,0,.37-2.7v-.65H62.57Z" transform="translate(0 0)"/><path class="cls-1" d="M67.79,60.67h1.82v9.74a4.75,4.75,0,0,0,.27,2,1.5,1.5,0,0,0,2.16.06,3.84,3.84,0,0,0,.27-1.78v-10h1.82v10a4.93,4.93,0,0,1-.68,3,3.25,3.25,0,0,1-2.51.9,2.9,2.9,0,0,1-2.62-1.16,6.06,6.06,0,0,1-.53-3Z" transform="translate(0 0)"/><path class="cls-1" d="M78.2,60.67h1.45L82.6,74.45H80.76l-.51-2.69H77.52L77,74.45H75.2ZM80,70.33l-.41-2.2c-.28-1.49-.5-3.09-.67-4.79-.08.83-.19,1.67-.32,2.52s-.29,1.75-.47,2.7l-.34,1.77Z" transform="translate(0 0)"/><path class="cls-1" d="M83.69,60.67h2.45a3.15,3.15,0,0,1,2.26.72,3.91,3.91,0,0,1,.94,2.86,4.89,4.89,0,0,1-.5,2.38,2.15,2.15,0,0,1-1.41,1.12L90,74.45H88.08L85.55,67.7v6.75H83.69Zm1.86,6.1a2,2,0,0,0,1.53-.5,2.49,2.49,0,0,0,.44-1.68,5.74,5.74,0,0,0-.09-1.1,1.94,1.94,0,0,0-.29-.74,1.25,1.25,0,0,0-.52-.42,1.91,1.91,0,0,0-.76-.14h-.31Z" transform="translate(0 0)"/><path class="cls-1" d="M93.37,60.67h1.44l3,13.78H95.93l-.52-2.69H92.68l-.53,2.69H90.36Zm1.77,9.66-.41-2.2c-.27-1.49-.5-3.09-.67-4.79-.08.83-.19,1.67-.32,2.52s-.29,1.75-.47,2.7l-.33,1.77Z" transform="translate(0 0)"/><path class="cls-1" d="M98.86,60.67h1.73l1.85,5.5a51.46,51.46,0,0,1,1.42,5c-.15-1.07-.26-2-.34-2.89s-.1-1.68-.1-2.44V60.67h1.87V74.45h-1.75l-2.08-6.2c-.19-.58-.37-1.17-.54-1.78s-.32-1.24-.47-1.91c0-.09,0-.19,0-.31s-.06-.25-.1-.41c0,.16,0,.29,0,.4s0,.21,0,.28l.1,1.4.1,1.71c0,.1,0,.21,0,.35s0,.29,0,.46l.1,6H98.86Z" transform="translate(0 0)"/><path class="cls-1" d="M106.31,60.67h6v1.62h-2.08V74.45h-1.82V62.29h-2.15Z" transform="translate(0 0)"/><path class="cls-1" d="M113.38,60.67h4.94v1.57h-3.08V66.6H118v1.57h-2.73v4.71h3.08v1.57h-4.94Z" transform="translate(0 0)"/><path class="cls-1" d="M120,60.67H125v1.57h-3.08V66.6h2.74v1.57h-2.74v4.71H125v1.57H120Z" transform="translate(0 0)"/><path class="cls-1" d="M126.67,60.67H129a5.54,5.54,0,0,1,1.75.23,2.71,2.71,0,0,1,1.18.79A5,5,0,0,1,133,63.92a16.86,16.86,0,0,1,.33,3.82,15.11,15.11,0,0,1-.37,3.71,4,4,0,0,1-1.17,2.1,5.53,5.53,0,0,1-3.62.9h-1.5Zm1.86,12.16a2.39,2.39,0,0,0,2.27-1,9.07,9.07,0,0,0,.59-4,11.48,11.48,0,0,0-.57-4.39,2.07,2.07,0,0,0-2.06-1.19h-.23Z" transform="translate(0 0)"/><path class="cls-1" d="M126.17,86.12l-.76,2.67a6.85,6.85,0,0,1-.85,2,3.28,3.28,0,0,1-1.32,1.11,6,6,0,0,1-3,.55,19.91,19.91,0,0,1-4.55-.88,18.88,18.88,0,0,1-4.22-1.66,5,5,0,0,1-2-2.08q-.72-1.47.15-4.52l.5-1.75Zm-14.81-1.88a2.89,2.89,0,0,0,.45,3c.67.69,2.15,1.36,4.46,2a14.25,14.25,0,0,0,5.3.8,2.54,2.54,0,0,0,2.09-2l.07-.27Z" transform="translate(0 0)"/><path class="cls-1" d="M120.48,101.26l-.87,1.53L103.3,97.63l1.1-1.94,3.15,1.07,1.64-2.89-2.52-2.16,1.07-1.89Zm-11.26-3.92,2.57.88c1.74.61,3.55,1.33,5.45,2.17-.83-.59-1.65-1.2-2.46-1.85s-1.67-1.35-2.57-2.11L110.55,95Z" transform="translate(0 0)"/><path class="cls-1" d="M114.91,109.41l-1.49,1.68L100.9,100l1.49-1.69Z" transform="translate(0 0)"/><path class="cls-1" d="M109.15,115.29,106.74,117a3.8,3.8,0,0,1-2.73.9,4.72,4.72,0,0,1-3-2.16,6,6,0,0,1-1.2-2.69,2.59,2.59,0,0,1,.6-2.1l-7.26-4.79L95,104.84l7.28,4.84L97.53,103l1.83-1.32ZM103,110.6a2.37,2.37,0,0,0-1.14,1.57,3,3,0,0,0,.76,2,6.16,6.16,0,0,0,.87,1,2.48,2.48,0,0,0,.82.53,1.45,1.45,0,0,0,.8,0,2.46,2.46,0,0,0,.84-.4l.31-.23Z" transform="translate(0 0)"/><path class="cls-1" d="M99.46,121.65l-2.21.88-2.38-3-.23-.29c-.08-.11-.17-.22-.28-.35a25.22,25.22,0,0,1-2-2.76q.32,1.32.39,1.86l.23,1.52.1.59L93.6,124l-2.18.87-.82-9.94-2.67-6.68,2.1-.84,2.66,6.69Z" transform="translate(0 0)"/><path class="cls-1" d="M74.48,127.41l-.2-2a3.49,3.49,0,0,0,1.49.27,2.36,2.36,0,0,0,1.33-.52,2.89,2.89,0,0,0,.82-1.31,7.62,7.62,0,0,0,.35-2.13,21.39,21.39,0,0,0-.11-3c-.41-4.11-1.66-6.06-3.77-5.85a3.24,3.24,0,0,0-1.29.47l-.2-2.06a3.69,3.69,0,0,1,1.76-.63q5.06-.5,5.87,7.76c.29,3,.1,5.23-.58,6.77a4.09,4.09,0,0,1-3.57,2.55A3.9,3.9,0,0,1,74.48,127.41Z" transform="translate(0 0)"/><path class="cls-1" d="M62.42,118.69q.18-4.43,1.24-6.25A3.44,3.44,0,0,1,67,110.72a3.52,3.52,0,0,1,3.35,2.14c.6,1.33.84,3.67.7,7q-.18,4.45-1.23,6.27a3.48,3.48,0,0,1-3.41,1.73,3.57,3.57,0,0,1-3.06-1.57,6.81,6.81,0,0,1-.86-2.78A27.75,27.75,0,0,1,62.42,118.69Zm2.37-.14a26.89,26.89,0,0,0,.15,5.78c.22,1,.73,1.46,1.53,1.49a1.6,1.6,0,0,0,1.66-1.24,22.7,22.7,0,0,0,.61-5.29,20.81,20.81,0,0,0-.21-5.11,1.61,1.61,0,0,0-1.52-1.4A1.56,1.56,0,0,0,65.4,114,16.36,16.36,0,0,0,64.79,118.55Z" transform="translate(0 0)"/><path class="cls-1" d="M55.83,126.62,54,126.14l.25-7c0-.87.09-1.74.16-2.6s.16-1.77.27-2.71c0,.12-.08.2-.1.27s0,.11-.06.14L53.7,116,53,117.73l-.54,1.11L49.52,125l-1.89-.48,2.63-16.59,2.09.53-1,5.6c-.06.28-.11.52-.15.73s-.08.37-.11.51l-.46,2.19-.45,2a.64.64,0,0,0,0,.09c0,.05,0,.11,0,.19l.13-.31.41-1c.12-.27.22-.51.31-.69l.65-1.41.24-.53L55,109.15l1.47.37L56.21,116c0,.85-.09,1.71-.16,2.57s-.17,1.76-.29,2.7l3.47-11,2.06.53Z" transform="translate(0 0)"/><path class="cls-1" d="M40.81,121.7l-2.58-1.47a4,4,0,0,1-2.18-2.48,5.12,5.12,0,0,1,.86-3.5q1.65-2.9,3.84-2.78a7.31,7.31,0,0,1,2.69,1L47.11,106l2,1.11Zm1.68-7.53a2.6,2.6,0,0,0-2-.46,2.9,2.9,0,0,0-1.48,1.5,3.73,3.73,0,0,0-.63,2.16,1.9,1.9,0,0,0,1.08,1.41l.28.16Z" transform="translate(0 0)"/><path class="cls-1" d="M29,113.49l-1.26-1.22,9-14.52,1.61,1.55-1.82,2.78,2.39,2.3,2.72-1.9L43.22,104Zm6.6-9.93-1.5,2.26q-1.53,2.31-3.45,4.75c.77-.66,1.57-1.3,2.4-1.93s1.72-1.28,2.68-2l1.79-1.26Z" transform="translate(0 0)"/><path class="cls-1" d="M21.77,105.25l-1-1.83,4.71-5.24q2-2.24,4.4-4.47c-1,.8-2,1.49-2.86,2.08s-1.7,1.11-2.51,1.57l-5.43,3.07-1.12-2L32.5,90.23l1,1.84L28.22,98c-.49.54-1,1.09-1.55,1.63s-1.12,1.09-1.74,1.64l-.29.24-.37.34.39-.28.28-.2,1.42-.94,1.75-1.12a4.12,4.12,0,0,1,.36-.22l.48-.28,6.29-3.69L36.34,97Z" transform="translate(0 0)"/><path class="cls-1" d="M16.05,94l-.65-2.29,3.2-2.06.31-.21.38-.24a28.28,28.28,0,0,1,2.95-1.72c-.89.12-1.52.19-1.89.2l-1.53.08-.6,0-3.89.14-.64-2.26,10,.2,6.92-2L31.19,86l-6.92,2Z" transform="translate(0 0)"/><path class="cls-1" d="M20.34,37.84l2,1a3.33,3.33,0,0,0-1.49,1.31,1.87,1.87,0,0,0-.1,1.58A2.2,2.2,0,0,0,21.87,43a2.77,2.77,0,0,0,1.53.32,6.59,6.59,0,0,0,1.08-.21c.46-.12,1-.29,1.69-.5a10,10,0,0,1,3-.58,5.31,5.31,0,0,1,2.38.65,4.7,4.7,0,0,1,2.35,2.43,3.56,3.56,0,0,1-.18,3A3.87,3.87,0,0,1,31.9,50l-2-1a3.81,3.81,0,0,0,1.78-1.55,1.8,1.8,0,0,0,.11-1.56,2.56,2.56,0,0,0-1.25-1.22,3.37,3.37,0,0,0-1.64-.38,6.09,6.09,0,0,0-1,.15,12.77,12.77,0,0,0-1.31.36c-.76.26-1.42.45-2,.59a6.64,6.64,0,0,1-1.39.23,5,5,0,0,1-2.38-.63,4.49,4.49,0,0,1-2.31-2.32,3.5,3.5,0,0,1,.22-3A4.85,4.85,0,0,1,20.34,37.84Z" transform="translate(0 0)"/><path class="cls-1" d="M25,30.62l4.12-4.35,1.38,1.31-2.56,2.71,3.85,3.64L34,31.52l1.39,1.31-2.28,2.41,4.15,3.92,2.57-2.71,1.38,1.31-4.11,4.35Z" transform="translate(0 0)"/><path class="cls-1" d="M34.35,22l1.92-1.11,3.95,4.86.7.88,1.52,1.93.7.9.56.74.5.66c-.06-.16-.12-.29-.17-.41l-.12-.31L43.2,28.3l-.94-2.39L42,25.3c-.07-.18-.13-.35-.18-.5l-2.12-5.89,1.82-1.05L47,34l-1.55.89Z" transform="translate(0 0)"/><path class="cls-1" d="M47.75,15.52l5.77-1.61L54,15.74l-3.61,1,1.43,5.1L55.05,21l.51,1.84-3.19.89,1.53,5.5,3.6-1L58,30l-5.77,1.61Z" transform="translate(0 0)"/><path class="cls-1" d="M60.37,12.74l2.1-.15,2.68,6.51A59.84,59.84,0,0,1,67.28,25c-.27-1.28-.48-2.44-.64-3.48s-.26-2-.32-2.94l-.42-6.23,2.26-.15L69.28,28.9,67.17,29l-3-7.34c-.28-.68-.55-1.39-.8-2.11s-.5-1.48-.73-2.27q0-.15-.09-.36c0-.15-.09-.31-.15-.49,0,.18.07.34.09.47s0,.25.05.34L62.76,19,63,21c0,.11,0,.25,0,.42s0,.35,0,.56l.61,7.27-2.21.15Z" transform="translate(0 0)"/><path class="cls-1" d="M85.74,13.83l1.71.38-.17,17.11-2.18-.49.1-3.32L82,26.78l-1.34,3-2.12-.47Zm-.47,11.91L85.36,23q.12-2.76.49-5.85c-.32,1-.67,1.92-1,2.89s-.81,2-1.27,3.08l-.87,2Z" transform="translate(0 0)"/><path class="cls-1" d="M102.82,20.54l-.91,1.81a3.43,3.43,0,0,0-1.11-1,2.29,2.29,0,0,0-1.4-.27,2.84,2.84,0,0,0-1.4.66,7.52,7.52,0,0,0-1.43,1.61,21.26,21.26,0,0,0-1.51,2.59q-2.79,5.52,0,7a3.29,3.29,0,0,0,1.34.29L95.52,35a3.66,3.66,0,0,1-1.83-.42q-4.55-2.28-.8-9.7c1.35-2.67,2.72-4.46,4.12-5.39a4.07,4.07,0,0,1,4.37-.25A3.93,3.93,0,0,1,102.82,20.54Z" transform="translate(0 0)"/><path class="cls-1" d="M109.54,25l2.11,2.08A3.74,3.74,0,0,1,113,29.67a4.69,4.69,0,0,1-1.63,3.27,6,6,0,0,1-2.45,1.64,2.59,2.59,0,0,1-2.17-.24l-3.52,7.95-1.63-1.6,3.57-8-5.75,5.84L97.8,37ZM106,31.9a2.41,2.41,0,0,0,1.74.87,3.1,3.1,0,0,0,1.82-1.08,7.08,7.08,0,0,0,.86-1,2.42,2.42,0,0,0,.37-.89,1.4,1.4,0,0,0-.09-.81,2.14,2.14,0,0,0-.54-.76l-.27-.26Z" transform="translate(0 0)"/><path class="cls-1" d="M119.48,36.86l2.81,5.29-1.68.89-1.76-3.3-4.67,2.49,1.56,2.93-1.69.89-1.56-2.92-5,2.68,1.76,3.3-1.69.89-2.81-5.29Z" transform="translate(0 0)"/></g></svg>