<svg id="Layer_1" data-name="Layer 1" xmlns="http://www.w3.org/2000/svg" viewBox="0 0 60 60"><defs><style>.cls-1{fill:#fc9bb3;}</style></defs><circle class="cls-1" cx="29.76" cy="30.24" r="5.37"/><path class="cls-1" d="M36.46,17.07H23.05a6.67,6.67,0,0,0-4.76,1.71,6.66,6.66,0,0,0-1.7,4.76V37a6.73,6.73,0,0,0,1.82,4.88,6.86,6.86,0,0,0,4.76,1.71H36.46a6.67,6.67,0,0,0,4.76-1.71,6.28,6.28,0,0,0,1.83-4.76V23.66a6.86,6.86,0,0,0-1.71-4.76A6.54,6.54,0,0,0,36.46,17.07Zm-6.7,21.47A8.3,8.3,0,0,1,29.18,22h.58a8.3,8.3,0,0,1,.58,16.59Zm8.65-15a2,2,0,1,1,2-2v.05a1.92,1.92,0,0,1-1.91,1.95Z"/><path class="cls-1" d="M30,0A30,30,0,1,0,60,30,30,30,0,0,0,30,0ZM46,37.07a9.64,9.64,0,0,1-2.68,7,9.48,9.48,0,0,1-6.83,2.56H23.17A9.51,9.51,0,0,1,16.34,44a9.14,9.14,0,0,1-2.68-7V23.66c0-5.61,3.78-9.51,9.51-9.51H36.58A9,9,0,0,1,46,23.66Z"/></svg>