<svg id="Layer_1" data-name="Layer 1" xmlns="http://www.w3.org/2000/svg" viewBox="0 0 60 60"><defs><style>.cls-1{fill:#fc9bb3;}</style></defs><path class="cls-1" d="M30,0A30,30,0,1,0,60,30,30,30,0,0,0,30,0ZM45.11,24v1c0,10-7.61,21.51-21.52,21.51A21.46,21.46,0,0,1,12,43.05a15.69,15.69,0,0,0,1.81.1,15.23,15.23,0,0,0,9.39-3.24,7.56,7.56,0,0,1-7.06-5.25,7.42,7.42,0,0,0,3.41-.13,7.56,7.56,0,0,1-6.07-7.41V27a7.51,7.51,0,0,0,3.43.95A7.56,7.56,0,0,1,14.6,17.88a21.45,21.45,0,0,0,15.58,7.89,7.57,7.57,0,0,1,12.89-6.89A15.07,15.07,0,0,0,47.87,17a7.65,7.65,0,0,1-3.33,4.19A15.27,15.27,0,0,0,48.89,20,15.47,15.47,0,0,1,45.11,24Z"/></svg>